<svg width="178.33375244140623px" height="548.0199584960938px" xmlns="http://www.w3.org/2000/svg" viewBox="160.8331237792969 -199.00997924804688 178.33375244140623 548.0199584960938" style="background: rgb(34, 34, 34);" preserveAspectRatio="xMidYMid"><defs><filter id="editing-hover" x="-100%" y="-100%" width="300%" height="300%"><feFlood flood-color="#40e0d0" result="flood"></feFlood><feComposite operator="in" in2="SourceAlpha" in="flood" result="shadow"></feComposite><feOffset dx="-45.2" dy="-2" in="SourceGraphic" result="offset-1"></feOffset><feOffset dx="45.2" dy="2" in="shadow" result="offset-2"></feOffset><feMerge><feMergeNode in="offset-2"></feMergeNode><feMergeNode in="offset-1"></feMergeNode></feMerge></filter></defs><g filter="url(#editing-hover)"><g transform="translate(193.20156173408031, 155.89999389648438)"><path d="M95.20-155.40L95.20-155.40Q103.40-150 108-141.30L108-141.30L108-141.30Q112.60-132.60 112.60-123.80L112.60-123.80L112.60-123.80Q112.60-109.80 103.40-90.20L103.40-90.20L58.80 6.40L0.20-133L18.40-142.40L64.60-28.20L88.60-78.40L88.60-78.40Q92.80-89 94.80-94.80L94.80-94.80L94.80-94.80Q96.80-100.60 96.80-106.20L96.80-106.20L96.80-106.20Q96.80-124.20 78.80-137.80L78.80-137.80L95.20-155.40Z" fill="#ffafaf"></path></g></g><style>text {
  font-size: 64px;
  font-family: Arial Black;
  dominant-baseline: central;
  text-anchor: middle;
}</style></svg>