<svg width="159.57001953124998px" height="485.63002929687497px" xmlns="http://www.w3.org/2000/svg" viewBox="170.21499023437502 -167.81501464843748 159.57001953124998 485.63002929687497" style="background: rgb(34, 34, 34);" preserveAspectRatio="xMidYMid"><defs><filter id="editing-hover" x="-100%" y="-100%" width="300%" height="300%"><feFlood flood-color="#aee1ff" result="flood"></feFlood><feComposite operator="in" in2="SourceAlpha" in="flood" result="shadow"></feComposite><feOffset dx="-39.7" dy="-2" in="SourceGraphic" result="offset-1"></feOffset><feOffset dx="39.7" dy="2" in="shadow" result="offset-2"></feOffset><feMerge><feMergeNode in="offset-2"></feMergeNode><feMergeNode in="offset-1"></feMergeNode></feMerge></filter></defs><g filter="url(#editing-hover)"><g transform="translate(199.92750197649002, 146.19000244140625)"><path d="M83.78-136.75L83.78-136.75Q90.99-132 95.04-124.34L95.04-124.34L95.04-124.34Q99.09-116.69 99.09-108.94L99.09-108.94L99.09-108.94Q99.09-96.62 90.99-79.38L90.99-79.38L51.74 5.63L0.18-117.04L16.19-125.31L56.85-24.82L77.97-68.99L77.97-68.99Q81.66-78.32 83.42-83.42L83.42-83.42L83.42-83.42Q85.18-88.53 85.18-93.46L85.18-93.46L85.18-93.46Q85.18-109.30 69.34-121.26L69.34-121.26L83.78-136.75Z" fill="#ffd5af"></path></g></g><style>text {
  font-size: 64px;
  font-family: Arial Black;
  dominant-baseline: central;
  text-anchor: middle;
}</style></svg>