<svg width="192.8262939453125px" height="209.635009765625px" xmlns="http://www.w3.org/2000/svg" viewBox="153.58685302734375 -29.8175048828125 192.8262939453125 209.635009765625" style="background: rgb(34, 34, 34);" preserveAspectRatio="xMidYMid"><defs><filter id="editing-crystal" x="-100%" y="-100%" width="300%" height="300%"><feMorphology operator="dilate" radius="2" in="SourceGraphic" result="border"></feMorphology><feFlood flood-color="#fff" result="black"></feFlood><feMorphology operator="dilate" radius="2" in="SourceGraphic" result="erode"></feMorphology><feGaussianBlur in="erode" stdDeviation="4" result="blur"></feGaussianBlur><feOffset in="blur" dx="2" dy="2" result="offset"></feOffset><feComposite operator="atop" in="offset" in2="black" result="merge"></feComposite><feComposite operator="in" in="merge" in2="SourceGraphic" result="inner-shadow"></feComposite><feGaussianBlur in="SourceGraphic" stdDeviation="2.5" result="shadow1"></feGaussianBlur><feOffset in="shadow1" dx="0" dy="5" result="shadow"></feOffset><feSpecularLighting in="SourceGraphic" result="specular" surfaceScale="1.5" specularConstant="100" specularExponent="10" lighting-color="#ffffff"><fePointLight x="250" y="-300" z="-400"></fePointLight></feSpecularLighting><feGaussianBlur in="specular" stdDeviation="1" result="specular2"></feGaussianBlur><feComposite operator="in" in="specular2" in2="SourceAlpha" result="specular3"></feComposite><feMerge result="merge"><feMergeNode in="border"></feMergeNode><feMergeNode in="inner-shadow"></feMergeNode><feMergeNode in="specular3"></feMergeNode></feMerge><feComponentTransfer in="merge" result="final"><feFuncA type="linear" slope="0.9" intercept="0"></feFuncA></feComponentTransfer><feMerge><feMergeNode in="shadow"></feMergeNode><feMergeNode in="final"></feMergeNode></feMerge></filter></defs><g filter="url(#editing-crystal)"><g transform="translate(188.61281299591064, 115.7400016784668)"><path d="M5.04-74.40L5.04-74.40L5.04-74.40Q6.72-77.76 10.38-79.62L10.38-79.62L10.38-79.62Q14.04-81.48 19.08-81.48L19.08-81.48L19.08-81.48Q27-81.48 31.74-75.78L31.74-75.78L31.74-75.78Q36.48-70.08 36.48-57.60L36.48-57.60L36.48-14.76L63.96-79.08L78.12-79.08L81.36-18.36L81-14.88L109.56-79.08L126-79.08L87.60 0L62.04 0L59.64-36.48L43.80 0L14.88 0L11.28-57.60L11.28-57.60Q10.92-64.08 9.18-68.34L9.18-68.34L9.18-68.34Q7.44-72.60 5.04-74.40Z" fill="#000000" stroke="#88e0eb" stroke-width="1.5"></path></g></g><style>text {
  font-size: 64px;
  font-family: Arial Black;
  dominant-baseline: central;
  text-anchor: middle;
}</style></svg>