<svg width="306.8112060546875px" height="336.8375px" xmlns="http://www.w3.org/2000/svg" viewBox="96.59439697265626 -93.41874999999999 306.8112060546875 336.8375" style="background: rgb(34, 34, 34);" preserveAspectRatio="xMidYMid"><defs><filter id="editing-crystal" x="-100%" y="-100%" width="300%" height="300%"><feMorphology operator="dilate" radius="2" in="SourceGraphic" result="border"></feMorphology><feFlood flood-color="#fff" result="black"></feFlood><feMorphology operator="dilate" radius="2" in="SourceGraphic" result="erode"></feMorphology><feGaussianBlur in="erode" stdDeviation="4" result="blur"></feGaussianBlur><feOffset in="blur" dx="2" dy="2" result="offset"></feOffset><feComposite operator="atop" in="offset" in2="black" result="merge"></feComposite><feComposite operator="in" in="merge" in2="SourceGraphic" result="inner-shadow"></feComposite><feGaussianBlur in="SourceGraphic" stdDeviation="2.5" result="shadow1"></feGaussianBlur><feOffset in="shadow1" dx="0" dy="5" result="shadow"></feOffset><feSpecularLighting in="SourceGraphic" result="specular" surfaceScale="1.5" specularConstant="100" specularExponent="10" lighting-color="#ffffff"><fePointLight x="250" y="-300" z="-400"></fePointLight></feSpecularLighting><feGaussianBlur in="specular" stdDeviation="1" result="specular2"></feGaussianBlur><feComposite operator="in" in="specular2" in2="SourceAlpha" result="specular3"></feComposite><feMerge result="merge"><feMergeNode in="border"></feMergeNode><feMergeNode in="inner-shadow"></feMergeNode><feMergeNode in="specular3"></feMergeNode></feMerge><feComponentTransfer in="merge" result="final"><feFuncA type="linear" slope="0.9" intercept="0"></feFuncA></feComponentTransfer><feMerge><feMergeNode in="shadow"></feMergeNode><feMergeNode in="final"></feMergeNode></feMerge></filter></defs><g filter="url(#editing-crystal)"><g transform="translate(147.2453098297119, 142.9000015258789)"><path d="M8.40-124L8.40-124L8.40-124Q11.20-129.60 17.30-132.70L17.30-132.70L17.30-132.70Q23.40-135.80 31.80-135.80L31.80-135.80L31.80-135.80Q45-135.80 52.90-126.30L52.90-126.30L52.90-126.30Q60.80-116.80 60.80-96L60.80-96L60.80-24.60L106.60-131.80L130.20-131.80L135.60-30.60L135-24.80L182.60-131.80L210-131.80L146 0L103.40 0L99.40-60.80L73 0L24.80 0L18.80-96L18.80-96Q18.20-106.80 15.30-113.90L15.30-113.90L15.30-113.90Q12.40-121 8.40-124Z" fill="#000000" stroke="#88e0eb" stroke-width="1.5"></path></g></g><style>text {
  font-size: 64px;
  font-family: Arial Black;
  dominant-baseline: central;
  text-anchor: middle;
}</style></svg>