<svg width="144.82248535156248px" height="360.807470703125px" xmlns="http://www.w3.org/2000/svg" viewBox="177.58875732421876 -105.40373535156249 144.82248535156248 360.807470703125" style="background: rgb(55, 55, 55);" preserveAspectRatio="xMidYMid"><defs><filter id="editing-hover" x="-100%" y="-100%" width="300%" height="300%"><feFlood flood-color="#30d5c8" result="flood"></feFlood><feComposite operator="in" in2="SourceAlpha" in="flood" result="shadow"></feComposite><feOffset dx="41.1" dy="3" in="SourceGraphic" result="offset-1"></feOffset><feOffset dx="-41.1" dy="-3" in="shadow" result="offset-2"></feOffset><feMerge><feMergeNode in="offset-2"></feMergeNode><feMergeNode in="offset-1"></feMergeNode></feMerge></filter></defs><g filter="url(#editing-hover)"><g transform="translate(204.86524999141693, 141.99749755859375)"><path d="M84.78-109.80L84.78-109.80L84.78-109.80Q84.60-107.64 83.97-104.67L83.97-104.67L83.97-104.67Q83.34-101.70 82.44-99.09L82.44-99.09L82.44-99.09Q81.54-96.48 80.64-94.68L80.64-94.68L80.64-94.68Q79.74-92.88 79.20-93.24L79.20-93.24L79.20-93.24Q79.02-93.24 79.02-94.14L79.02-94.14L79.02-94.14Q79.02-95.04 79.02-96.21L79.02-96.21L79.02-96.21Q79.02-97.38 79.20-98.46L79.20-98.46L79.20-98.46Q79.38-99.54 79.38-100.08L79.38-100.08L79.38-100.08Q79.92-102.96 80.10-105.48L80.10-105.48L80.10-105.48Q80.28-108 80.64-110.70L80.64-110.70L80.64-110.70Q81-114.12 81.09-117.18L81.09-117.18L81.09-117.18Q81.18-120.24 80.64-123.48L80.64-123.48L80.64-123.48Q80.64-123.84 80.46-124.38L80.46-124.38L80.46-124.38Q80.28-124.92 80.64-124.92L80.64-124.92L80.64-124.92Q81.18-124.92 81.90-124.11L81.90-124.11L81.90-124.11Q82.62-123.30 82.80-122.94L82.80-122.94L82.80-122.94Q83.88-120.78 84.51-117.90L84.51-117.90L84.51-117.90Q85.14-115.02 84.78-109.80ZM87.12-122.40L87.12-122.40L87.12-122.40Q90.18-115.20 90.81-108.09L90.81-108.09L90.81-108.09Q91.44-100.98 90.45-93.87L90.45-93.87L90.45-93.87Q89.46-86.76 87.03-79.74L87.03-79.74L87.03-79.74Q84.60-72.72 81.54-66.06L81.54-66.06L81.54-66.06Q77.40-57.06 72.81-48.42L72.81-48.42L72.81-48.42Q68.22-39.78 63.90-31.50L63.90-31.50L63.90-31.50Q59.58-23.22 55.89-15.39L55.89-15.39L55.89-15.39Q52.20-7.56 50.04 0L50.04 0L50.04 0Q49.68 0.90 49.23 0.72L49.23 0.72L49.23 0.72Q48.78 0.54 48.78 0L48.78 0L48.78 0Q48.42-8.64 51.30-17.37L51.30-17.37L51.30-17.37Q54.18-26.10 58.59-34.92L58.59-34.92L58.59-34.92Q63-43.74 68.13-52.65L68.13-52.65L68.13-52.65Q73.26-61.56 77.40-70.74L77.40-70.74L77.40-70.74Q80.10-76.50 82.26-82.80L82.26-82.80L82.26-82.80Q84.42-89.10 85.77-95.76L85.77-95.76L85.77-95.76Q87.12-102.42 87.39-108.99L87.39-108.99L87.39-108.99Q87.66-115.56 86.40-121.86L86.40-121.86L86.40-121.86Q86.04-123.48 86.40-123.30L86.40-123.30L86.40-123.30Q86.58-123.30 87.12-122.40ZM28.62-52.02L28.62-52.02L28.62-52.02Q28.62-51.48 28.53-49.77L28.53-49.77L28.53-49.77Q28.44-48.06 27.90-48.06L27.90-48.06L27.90-48.06Q27.54-47.88 27-49.41L27-49.41L27-49.41Q26.46-50.94 26.10-51.84L26.10-51.84L26.10-51.84Q25.38-54.18 24.48-57.51L24.48-57.51L24.48-57.51Q23.58-60.84 22.77-64.35L22.77-64.35L22.77-64.35Q21.96-67.86 21.33-71.28L21.33-71.28L21.33-71.28Q20.70-74.70 20.52-77.22L20.52-77.22L20.52-77.22Q20.34-78.48 19.80-82.17L19.80-82.17L19.80-82.17Q19.26-85.86 18.36-90.90L18.36-90.90L18.36-90.90Q17.46-95.94 16.29-101.70L16.29-101.70L16.29-101.70Q15.12-107.46 13.77-112.77L13.77-112.77L13.77-112.77Q12.42-118.08 10.98-122.31L10.98-122.31L10.98-122.31Q9.54-126.54 8.10-128.52L8.10-128.52L8.10-128.52Q7.20-129.78 7.56-130.14L7.56-130.14L7.56-130.14Q7.92-130.50 8.46-130.05L8.46-130.05L8.46-130.05Q9-129.60 9.36-129.24L9.36-129.24L9.36-129.24Q12.24-127.08 14.85-123.12L14.85-123.12L14.85-123.12Q17.46-119.16 19.62-114.66L19.62-114.66L19.62-114.66Q21.78-110.16 23.22-105.39L23.22-105.39L23.22-105.39Q24.66-100.62 25.20-96.84L25.20-96.84L25.20-96.84Q26.82-86.22 27.54-74.34L27.54-74.34L27.54-74.34Q28.26-62.46 28.62-52.02ZM39.96-26.64L39.96-26.64L39.96-26.64Q36.36-38.70 34.20-51.48L34.20-51.48L34.20-51.48Q32.04-64.26 30.42-77.22L30.42-77.22L30.42-77.22Q29.16-86.76 27.54-96.30L27.54-96.30L27.54-96.30Q25.92-105.84 22.50-116.10L22.50-116.10L22.50-116.10Q22.14-117 22.14-117.09L22.14-117.09L22.14-117.09Q22.14-117.18 22.50-117.36L22.50-117.36L22.50-117.36Q22.86-117.36 23.76-116.46L23.76-116.46L23.76-116.46Q27.54-112.68 30.15-104.76L30.15-104.76L30.15-104.76Q32.76-96.84 34.65-87.93L34.65-87.93L34.65-87.93Q36.54-79.02 37.80-70.65L37.80-70.65L37.80-70.65Q39.06-62.28 39.96-57.24L39.96-57.24L39.96-57.24Q40.86-53.10 41.49-48.78L41.49-48.78L41.49-48.78Q42.12-44.46 42.48-40.14L42.48-40.14L42.48-40.14Q43.74-45 45.90-50.13L45.90-50.13L45.90-50.13Q48.06-55.26 50.31-60.12L50.31-60.12L50.31-60.12Q52.56-64.98 54.81-69.21L54.81-69.21L54.81-69.21Q57.06-73.44 58.50-76.50L58.50-76.50L58.50-76.50Q62.28-84.60 67.14-92.79L67.14-92.79L67.14-92.79Q72-100.98 76.14-106.56L76.14-106.56L76.14-106.56Q77.76-108.72 77.94-108.72L77.94-108.72L77.94-108.72Q78.30-108.36 78.03-107.55L78.03-107.55L78.03-107.55Q77.76-106.74 77.40-105.84L77.40-105.84L77.40-105.84Q73.80-92.88 67.59-80.64L67.59-80.64L67.59-80.64Q61.38-68.40 55.08-55.98L55.08-55.98L55.08-55.98Q51.48-49.14 47.88-42.12L47.88-42.12L47.88-42.12Q44.28-35.10 42.48-26.46L42.48-26.46L42.48-26.46Q42.12-24.48 41.49-24.03L41.49-24.03L41.49-24.03Q40.86-23.58 39.96-26.64ZM45.54 0L45.54 0L45.54 0Q46.08 0.36 45.81 0.45L45.81 0.45L45.81 0.45Q45.54 0.54 45 0.18L45 0.18L45 0.18Q37.98-3.06 32.94-8.73L32.94-8.73L32.94-8.73Q27.90-14.40 24.39-21.42L24.39-21.42L24.39-21.42Q20.88-28.44 18.72-36.36L18.72-36.36L18.72-36.36Q16.56-44.28 15.12-52.02L15.12-52.02L15.12-52.02Q13.14-62.82 12.06-73.62L12.06-73.62L12.06-73.62Q10.98-84.42 9.63-94.77L9.63-94.77L9.63-94.77Q8.28-105.12 6.48-114.57L6.48-114.57L6.48-114.57Q4.68-124.02 1.44-131.94L1.44-131.94L1.44-131.94Q1.26-132.30 1.17-132.57L1.17-132.57L1.17-132.57Q1.08-132.84 1.44-133.20L1.44-133.20L1.44-133.20Q1.62-133.38 1.98-132.84L1.98-132.84L1.98-132.84Q2.34-132.30 2.52-131.94L2.52-131.94L2.52-131.94Q8.10-124.38 10.89-114.75L10.89-114.75L10.89-114.75Q13.68-105.12 15.12-94.41L15.12-94.41L15.12-94.41Q16.56-83.70 17.55-72.45L17.55-72.45L17.55-72.45Q18.54-61.20 20.52-50.58L20.52-50.58L20.52-50.58Q21.78-43.74 23.94-36.63L23.94-36.63L23.94-36.63Q26.10-29.52 29.16-22.77L29.16-22.77L29.16-22.77Q32.22-16.02 36.27-10.17L36.27-10.17L36.27-10.17Q40.32-4.32 45.54 0ZM44.64-4.50L44.64-4.50L44.64-4.50Q43.56-5.58 41.85-7.38L41.85-7.38L41.85-7.38Q40.14-9.18 38.70-11.16L38.70-11.16L38.70-11.16Q37.62-12.96 36.36-15.93L36.36-15.93L36.36-15.93Q35.10-18.90 34.11-21.78L34.11-21.78L34.11-21.78Q33.12-24.66 32.67-26.91L32.67-26.91L32.67-26.91Q32.22-29.16 32.76-29.34L32.76-29.34L32.76-29.34Q32.94-29.34 33.57-28.53L33.57-28.53L33.57-28.53Q34.20-27.72 34.74-26.64L34.74-26.64L34.74-26.64Q35.28-25.56 35.82-24.57L35.82-24.57L35.82-24.57Q36.36-23.58 36.72-23.22L36.72-23.22L36.72-23.22Q38.16-20.70 39.24-18.63L39.24-18.63L39.24-18.63Q40.32-16.56 41.22-14.22L41.22-14.22L41.22-14.22Q42.30-11.88 43.47-10.17L43.47-10.17L43.47-10.17Q44.64-8.46 44.82-8.64L44.82-8.64L44.82-8.64Q45-8.64 44.91-9.63L44.91-9.63L44.91-9.63Q44.82-10.62 44.73-11.88L44.73-11.88L44.73-11.88Q44.64-13.14 44.55-14.31L44.55-14.31L44.55-14.31Q44.46-15.48 44.46-16.02L44.46-16.02L44.46-16.02Q44.10-22.86 45.63-28.26L45.63-28.26L45.63-28.26Q47.16-33.66 49.14-38.16L49.14-38.16L49.14-38.16Q53.28-47.34 58.86-56.52L58.86-56.52L58.86-56.52Q64.44-65.70 70.20-73.80L70.20-73.80L70.20-73.80Q70.56-74.16 71.64-75.42L71.64-75.42L71.64-75.42Q72.72-76.68 73.08-76.50L73.08-76.50L73.08-76.50Q73.62-76.32 73.17-74.79L73.17-74.79L73.17-74.79Q72.72-73.26 72.54-72.72L72.54-72.72L72.54-72.72Q71.82-70.56 70.65-67.68L70.65-67.68L70.65-67.68Q69.48-64.80 68.22-61.65L68.22-61.65L68.22-61.65Q66.96-58.50 65.61-55.62L65.61-55.62L65.61-55.62Q64.26-52.74 63.18-50.76L63.18-50.76L63.18-50.76Q62.64-49.68 61.20-46.62L61.20-46.62L61.20-46.62Q59.76-43.56 57.96-39.15L57.96-39.15L57.96-39.15Q56.16-34.74 54.18-29.70L54.18-29.70L54.18-29.70Q52.20-24.66 50.49-19.89L50.49-19.89L50.49-19.89Q48.78-15.12 47.70-11.16L47.70-11.16L47.70-11.16Q46.62-7.20 46.62-4.86L46.62-4.86L46.62-4.86Q46.62-3.60 46.08-3.60L46.08-3.60L46.08-3.60Q45.54-3.60 44.64-4.50Z" fill="#ffafaf"></path></g></g><style>text {
  font-size: 64px;
  font-family: Arial Black;
  dominant-baseline: central;
  text-anchor: middle;
}</style></svg>